<svg id="cclor_outline" height="512" viewBox="0 0 64 64" width="512" xmlns="http://www.w3.org/2000/svg"><path d="m57.65 12.7c1.25.44 2.42 1.2 3.38 2.29 1.32 1.51 1.97 3.39 1.97 5.3 0 1.28-.29 2.57-.86 3.78-7.74 16.4-17.61 26.28-39 36.32-3.08 1.44-6.78.33-9.02-2.22-1.07-1.21-1.7-2.65-1.92-4.13-.06-.4-.09-.8-.09-1.2 0-2.49 1.14-4.96 3.34-6.55 13.78-10 26.32-23.26 33.39-31.28 2.28-2.6 5.8-3.37 8.81-2.31z" fill="#ffa719"/><path d="m33 48c-6.427 3.673-14.53 4.797-18.911-.459-1.303 1.498-1.979 3.391-1.979 5.299 0 .4.03.8.09 1.2.22 1.48.85 2.92 1.92 4.13 2.24 2.55 5.94 3.66 9.02 2.22 21.39-10.04 31.26-19.92 39-36.32.57-1.21.86-2.5.86-3.78 0-1.369-.34-2.719-1.015-3.932-3.92 14.53-16.449 22.688-28.985 31.642z" fill="#f27507"/><path d="m57.69 12.04c0 .22-.01.44-.04.66-3.01-1.06-6.53-.29-8.81 2.31-7.07 8.02-19.61 21.28-33.39 31.28-2.2 1.59-3.34 4.06-3.34 6.55 0 .4.03.8.09 1.2-.22.1-.42.19-.63.28-2.64 1.2-5.73.65-7.77-1.4-1.38-1.39-2.03-3.15-2.03-4.89 0-.46.05-.92.14-1.37.39-1.99 1.65-3.81 3.67-4.83.46-.23.94-.47 1.43-.74.01.39.14.78.39 1.11.39.52.99.8 1.6.8.42 0 .84-.13 1.2-.4.04-.03 3.72-2.77 7.38-3.7 2.37-.6 4.4-2.39 5.72-5.03l.95-1.89c.82-1.65 2.12-2.99 3.74-3.88l5.2-2.84c2.23-1.21 3.9-3.21 4.7-5.61l1.22-3.65c.39-1.16 1.11-2.16 2.09-2.9l5-3.75c.88-.66 1.06-1.92.4-2.8-.07-.09-.14-.17-.22-.24 1.01-.75 2.19-1.2 3.4-1.33 2.05-.24 4.2.42 5.81 2.03 1.36 1.35 2.1 3.18 2.1 5.03z" fill="#fe5754"/><path d="m57.69 12.04c0 .22-.01.44-.04.66-3.01-1.06-6.53-.29-8.81 2.31-7.07 8.02-19.61 21.28-33.39 31.28-2.2 1.59-3.34 4.06-3.34 6.55 0 .4.03.8.09 1.2-.22.1-.42.19-.63.28-2.64 1.2-5.73.65-7.77-1.4-.65-.66-1.14-1.39-1.47-2.17 2.31-.56 5.38-1.84 9.18-4.56 9.58-6.85 30.55-25.65 36.26-33.95 2.53-3.69 5.91-4.31 8.88-3.86.69 1.11 1.04 2.38 1.04 3.66z" fill="#f23633"/><path d="m49.78 4.98c-1.21.13-2.39.58-3.4 1.33-.69-.67-1.78-.75-2.58-.16l-5 3.75c-1.63 1.23-2.84 2.9-3.49 4.84l-1.21 3.64c-.48 1.45-1.48 2.64-2.82 3.37l-5.21 2.84c-2.34 1.28-4.21 3.21-5.4 5.6l-.95 1.89c-.78 1.56-1.92 2.63-3.13 2.94-4.42 1.13-8.61 4.25-8.79 4.38-.55.41-.82 1.05-.79 1.69-.49.27-.97.51-1.43.74-2.02 1.02-3.28 2.84-3.67 4.83h-.01c-.6-1.16-.9-2.43-.9-3.69 0-2.5 1.15-4.97 3.33-6.56 13.79-10 26.34-23.26 33.4-31.28 3.19-3.63 8.81-3.69 12.05-.15z" fill="#ffa719"/><path d="m49.78 4.98c-1.21.13-2.39.58-3.4 1.33-.69-.67-1.78-.75-2.58-.16l-5 3.75c-1.63 1.23-2.84 2.9-3.49 4.84l-1.21 3.64c-.48 1.45-1.48 2.64-2.82 3.37l-5.21 2.84c-2.34 1.28-4.21 3.21-5.4 5.6l-.95 1.89c-.78 1.56-1.92 2.63-3.13 2.94-4.42 1.13-8.61 4.25-8.79 4.38-.55.41-.82 1.05-.79 1.69-.49.27-.97.51-1.43.74-2.02 1.02-3.28 2.84-3.67 4.83h-.01c-.59-1.14-.89-2.4-.9-3.64.62-1.31 1.67-2.44 3.11-3.17.46-.23.94-.47 1.43-.74-.03-.64.24-1.28.79-1.69.18-.13 4.37-3.25 8.79-4.38 1.21-.31 2.35-1.38 3.13-2.94l.95-1.89c1.19-2.39 3.06-4.32 5.4-5.6l5.21-2.84c1.34-.73 2.34-1.92 2.82-3.37l1.21-3.64c.65-1.94 1.86-3.61 3.49-4.84l5-3.75c.8-.59 1.89-.51 2.58.16.74-.55 1.57-.94 2.44-1.15.89.42 1.72 1.02 2.43 1.8z" fill="#f27507"/><path d="m46.6 6.55c.66.88.48 2.14-.4 2.8l-5 3.75c-.98.74-1.7 1.74-2.09 2.9l-1.22 3.65c-.8 2.4-2.47 4.4-4.7 5.61l-5.2 2.84c-1.62.89-2.92 2.23-3.74 3.88l-.95 1.89c-1.32 2.64-3.35 4.43-5.72 5.03-3.66.93-7.34 3.67-7.38 3.7-.36.27-.78.4-1.2.4-.61 0-1.21-.28-1.6-.8-.25-.33-.38-.72-.39-1.11-.03-.64.24-1.28.79-1.69.18-.13 4.37-3.25 8.79-4.38 1.21-.31 2.35-1.38 3.13-2.94l.95-1.89c1.19-2.39 3.06-4.32 5.4-5.6l5.21-2.84c1.34-.73 2.34-1.92 2.82-3.37l1.21-3.64c.65-1.94 1.86-3.61 3.49-4.84l5-3.75c.8-.59 1.89-.51 2.58.16.08.07.15.15.22.24z" fill="#f2c641"/><g><path d="m61.777 14.331c-.865-.983-1.921-1.756-3.087-2.283 0-.003 0-.005 0-.008 0-2.137-.873-4.229-2.394-5.737-1.659-1.66-3.913-2.451-6.136-2.343-1.702-1.668-4.011-2.607-6.408-2.595-2.59.023-5.06 1.154-6.777 3.103-6.392 7.263-19.208 20.966-33.231 31.135-2.345 1.709-3.744 4.461-3.744 7.363 0 1.326.309 2.64.871 3.832-.062.404-.101.814-.101 1.232 0 2.1.824 4.087 2.321 5.596 1.508 1.515 3.549 2.316 5.614 2.316.94 0 1.883-.177 2.785-.518.371 1.246 1.003 2.415 1.878 3.41 1.817 2.067 4.355 3.193 6.85 3.193 1.148 0 2.288-.239 3.344-.734 20.983-9.847 31.315-19.477 39.483-36.798 1.627-3.449 1.129-7.438-1.268-10.164zm-59.777 28.635c0-2.265 1.093-4.414 2.92-5.746 14.179-10.281 27.11-24.105 33.557-31.43 1.342-1.523 3.271-2.407 5.294-2.425 1.378-.022 2.722.386 3.868 1.122-.43.167-.85.37-1.252.615-.992-.516-2.232-.467-3.187.248l-5.002 3.75c-1.798 1.349-3.123 3.189-3.834 5.321l-1.215 3.644c-.401 1.204-1.236 2.201-2.35 2.809l-5.208 2.841c-2.521 1.375-4.532 3.459-5.818 6.03l-.945 1.891c-.641 1.282-1.568 2.186-2.482 2.418-4.602 1.17-8.962 4.408-9.146 4.546-.608.456-1.004 1.113-1.141 1.856-.313.164-.63.331-.93.481-1.289.65-2.336 1.618-3.085 2.777-.026-.248-.044-.498-.044-.748zm43.99-35.074c-.038.265-.177.498-.39.659l-5.001 3.75c-1.145.858-1.988 2.029-2.44 3.386l-1.215 3.643c-.724 2.167-2.225 3.962-4.229 5.055l-5.208 2.841c-1.801.981-3.238 2.471-4.156 4.307l-.945 1.891c-1.188 2.375-2.99 3.976-5.073 4.506-3.87.984-7.706 3.85-7.731 3.87-.435.325-1.081.227-1.402-.2-.16-.214-.228-.478-.19-.742.038-.265.177-.498.39-.658.17-.127 4.22-3.135 8.439-4.209 1.491-.379 2.868-1.641 3.778-3.462l.945-1.89c1.103-2.203 2.827-3.99 4.986-5.168l5.208-2.841c1.56-.85 2.728-2.247 3.289-3.932l1.215-3.644c.582-1.745 1.667-3.25 3.138-4.354l5-3.749c.18-.135.392-.2.601-.2.305 0 .605.138.801.399.16.214.227.477.19.742zm-41.48 44.323c-1.122-1.13-1.74-2.617-1.74-4.186 0-2.26 1.249-4.293 3.258-5.305.129-.065.269-.141.401-.208.056.095.105.193.172.283.562.752 1.461 1.201 2.401 1.201.651 0 1.273-.207 1.801-.602.035-.026 3.56-2.649 7.023-3.53 2.655-.676 4.917-2.647 6.369-5.55l.945-1.891c.734-1.469 1.884-2.66 3.324-3.445l5.208-2.841c2.449-1.336 4.285-3.53 5.168-6.178l1.215-3.644c.323-.969.926-1.806 1.743-2.419l5.001-3.75c.642-.481 1.057-1.183 1.17-1.976.076-.532-.002-1.059-.199-1.544 2.304-1.202 5.217-.807 7.115 1.09.997.989 1.623 2.309 1.77 3.692-.559-.107-1.129-.171-1.706-.171h-.003c-2.623 0-5.123 1.131-6.86 3.104-6.398 7.269-19.225 20.979-33.225 31.134-2.069 1.5-3.418 3.815-3.701 6.352-.059.531-.06 1.061-.025 1.587-2.243 1.008-4.904.528-6.625-1.203zm56.726-28.574c-7.941 16.841-18.022 26.22-38.524 35.841-2.546 1.196-5.771.386-7.842-1.969-1.334-1.518-1.945-3.457-1.722-5.461.221-1.978 1.272-3.783 2.887-4.954 14.157-10.269 27.099-24.101 33.553-31.432 1.356-1.542 3.31-2.425 5.358-2.425h.002c2.038 0 3.98.879 5.327 2.411 1.899 2.159 2.267 5.22.961 7.989z"/><path d="m54.946 15.241c-1.495 0-2.865.62-3.858 1.747-.587.667-1.198 1.355-1.832 2.061-.369.411-.335 1.043.076 1.412.191.171.43.256.668.256.273 0 .547-.112.744-.332.638-.711 1.255-1.404 1.845-2.075.607-.689 1.444-1.069 2.357-1.069.553 0 1-.448 1-1s-.447-1-1-1z"/><path d="m46.271 22.32c-.959 1.035-1.958 2.097-2.993 3.177-.383.399-.369 1.032.03 1.414.193.186.442.278.691.278.263 0 .525-.103.722-.308 1.043-1.089 2.05-2.158 3.017-3.201.375-.405.352-1.038-.054-1.413-.405-.376-1.037-.353-1.413.053z"/><path d="m24.638 54.106c-1.17.585-2.377 1.17-3.625 1.755-.5.235-.715.83-.48 1.33.17.363.53.575.906.575.142 0 .286-.03.424-.095 1.264-.593 2.486-1.185 3.67-1.778.494-.247.694-.848.447-1.341-.249-.494-.848-.696-1.342-.446z"/><path d="m38.408 45.886c-2.92 2.142-6.178 4.181-9.962 6.235-.485.264-.665.871-.401 1.356.182.335.525.523.88.523.161 0 .324-.039.477-.121 3.863-2.098 7.196-4.185 10.19-6.381.445-.327.541-.952.215-1.397-.328-.445-.953-.542-1.399-.215z"/></g></svg>